<svg xmlns="http://www.w3.org/2000/svg" xmlns:xlink="http://www.w3.org/1999/xlink" preserveAspectRatio="xMidYMid meet" version="1.0" viewBox="271.6 1069.7 9350.0 7811.9" zoomAndPan="magnify" style="fill: rgb(255, 116, 15);" original_string_length="11622" width="43.1866186598878px" height="36.08276630706347px"><g id="__id3_szmao9rjla"><path d="M8992.36,7173.95c-0.02-0.09-0.03-0.2-0.04-0.3C8990.35,7158.24,8982.07,7114.78,8992.36,7173.95z" style="fill: inherit;"/><path d="M9615.72,7931.75c-0.25-1.69-0.57-3.34-0.85-5.02c-0.31-1.53-0.52-3.06-0.86-4.59c-0.54-2.88-0.98-5.81-1.63-8.64 c-65.82-288.58-129.01-577.75-193.24-866.7c-17.47-124.95-40.96-248.89-82.54-367.48c-38.17-108.84-152.88-192.88-271.88-154.37 c-118.12,38.22-181.94,150.98-154.37,271.88c25.93,113.67,51.4,227.43,76.73,341.24c1.81,13.31,3.67,26.62,5.97,39.83 c-0.25-1.47-0.45-2.59-0.68-3.95c1.74,13.61,3.44,27.22,5.12,40.84c3.56,28.75,7.03,57.51,10.55,86.27 c-223.34-137.22-473.45-234.91-729.17-301.02c-268.4-69.4-544.89-106.2-820.79-129.34c-21.16-1.78-42.33-3.25-63.5-4.84 c206.53-333.94,346.25-707.33,359.73-1103.33c19.1-560.88-254.67-1088.26-680.13-1443.75c-217.58-181.8-458.2-320.51-721.78-424.14 c-290.85-114.35-604.79-167.58-915.55-188.53c-81-5.47-162.09-8.29-243.2-8.84c7.11-16.7,14.37-33.32,21.27-50.12 c93.07-226.71,162.72-463.22,205.2-704.64c49.43-280.97,63.13-567.45,1.79-847.9c-63.57-290.67-224.68-545.83-470.22-715.39 c-254.77-175.92-575.15-227.79-876.5-256.84c-546.51-52.69-1107.48,7.16-1634.24,160.12 c-529.21,153.67-1035.72,402.3-1474.17,736.77c-217.37,165.81-420.83,346.47-604.12,549.62c-77.43,85.83-91.05,228.99,0,312.57 c84.5,77.56,229.85,91.68,312.57,0c86.62-96,177.54-188,272.86-275.39c45.91-42.08,92.79-83.11,140.57-123.07 c23-19.24,46.21-38.23,69.62-56.96c11.09-8.87,22.28-17.6,33.41-26.41c4.9-3.77,9.82-7.5,14.74-11.22 c204.43-154.35,422.96-290.01,651.62-405.43c55.66-28.09,111.92-55,168.73-80.7c26.93-12.18,54.05-23.91,81.17-35.64 c1.99-0.85,3.99-1.65,5.98-2.47c17.09-7.02,34.22-13.94,51.4-20.75c118.09-46.81,238.21-88.5,359.91-124.88 c123.88-37.03,249.4-68.58,376.08-94.45c63.31-12.93,126.92-24.44,190.75-34.5c13.68-2.15,27.36-4.24,41.06-6.27 c4.44-0.66,16.45-2.34,25.89-3.67c9.88-1.26,21.92-2.81,25.11-3.2c16.03-1.95,32.07-3.79,48.13-5.56 c254.55-27.93,511.67-32.73,767.02-13.06c32.23,2.48,64.44,5.37,96.6,8.64c29.02,2.95,67.78,14.67,96.51,11.3 c16.55,2.48,33.09,5.11,49.59,7.91c35.66,6.06,71.19,12.9,106.49,20.77c63.17,14.09,125.67,31.39,186.63,53.18 c13.79,4.93,28.56,12.65,42.97,16.59c3.17,1.42,6.35,2.83,9.5,4.3c29.88,14,59.11,29.35,87.49,46.18 c24.41,14.47,48.2,37.08,73.68,49.23c2.69,2.24,5.37,4.48,8.02,6.77c13.52,11.67,26.65,23.77,39.39,36.3 c19.67,19.36,37.78,39.95,55.89,60.75c0.25,0.28,0.37,0.41,0.6,0.68c8.38,11.6,16.52,23.39,24.32,35.39 c15.89,24.45,30.59,49.7,44.05,75.57c5.78,11.1,11.34,22.32,16.69,33.64c2,4.24,3.87,8.73,5.81,13.17 c19.88,52.78,36.75,106.35,49.34,161.4c6.23,27.25,11.57,54.68,16.11,82.26c0.51,3.13,1,6.25,1.48,9.38 c1.36,13.93,3.28,27.86,4.54,41.76c5.34,59.1,7.43,118.47,6.85,177.8c-0.6,61.79-4.11,123.54-10.09,185.05 c-1.49,15.31-3.12,30.6-4.91,45.88c-5.67,29.57-8.82,59.92-14.1,89.55c-40.75,228.86-105.85,453.26-192.19,669.05 c-4.9,12.25-9.93,24.46-14.94,36.67c-0.57,1.32-1.05,2.42-1.74,4.01c-11.75,27.1-23.84,54.06-36.26,80.87 c-15.1,32.6-30.85,64.89-46.91,97.02c-78.6,6.93-157.07,15.25-235.32,24.7c-323.01,39.04-645.3,90.39-964.36,154.21 c-587.97,117.61-1182.23,296.9-1682.82,636.81c-239.99,162.96-432.39,386.94-533.87,660.68 c-48.48,130.75-60.64,272.43-34.42,409.24c29.4,153.37,127.56,278.76,250.59,369.49c250.55,184.77,599.51,131.64,882.69,73.63 c255.44-52.33,500.98-136.55,739.8-240.43c464-201.82,888.37-502.78,1241.72-864.26c235.69-241.1,438.5-509.75,606.13-799.64 c152.53-6.21,305.26-5.66,457.67,4.29c36.02,2.36,72,5.22,107.93,8.66c19.33,1.85,38.65,3.86,57.95,6.03 c8.27,0.93,16.54,1.89,24.8,2.88c0.78,0.09,8.52,1.06,16.23,2.02c3.09,0.41,6.07,0.83,7.5,1.05c10.96,1.7,21.95,3.26,32.92,4.98 c16.45,2.58,32.87,5.29,49.28,8.13c41.06,7.11,81.96,15.07,122.68,23.9c127.59,27.64,253.19,63.8,374.99,110.91 c13.11,5.08,26.09,10.46,39.18,15.6c29.2,12.73,58.17,26.01,86.83,39.93c52.71,25.6,104.47,53.16,155.1,82.66 c52.41,30.53,103.6,63.14,153.37,97.81c22.21,15.46,43.98,31.49,65.68,47.65c1.17,0.94,2.21,1.78,3.68,2.95 c13.44,10.74,26.74,21.65,39.91,32.72c89.81,75.52,173.24,158.68,247.96,249.19c4.98,6.04,9.83,12.17,14.71,18.29 c3.86,5.88,9.33,11.96,13.06,17.05c17.44,23.79,34.28,48.05,50.46,72.72c32.27,49.22,61.94,100.16,88.64,152.61 c12.32,24.21,23.98,48.74,35,73.57c5.3,13.77,10.72,27.47,15.78,41.34c20.37,55.78,37.36,112.79,50.75,170.65 c6.73,29.09,12.56,58.38,17.52,87.82c1.06,6.31,1.86,13.04,2.9,19.59c1.54,13.84,3.16,27.66,4.35,41.55 c5.39,63.05,6.79,126.44,4.36,189.67c-1.26,32.64-3.52,65.25-6.78,97.75c-1.39,13.9-3.68,27.81-4.71,41.73 c4.96-67.19,0.57-6.48-2.28,10.53c-10.85,64.74-25.43,128.86-43.27,192.03c-18.02,63.79-39.32,126.65-63.48,188.37 c-4.14,10.58-8.8,21.09-12.9,31.75c-2.15,4.85-4.28,9.7-6.45,14.55c-13.77,30.7-28.22,61.1-43.29,91.18 c-61.07,121.89-132.31,238.56-211.01,349.83c-13.45,19.01-27.36,37.68-41.22,56.39c-120.75-1.18-241.52,0.35-362.19,4.66 c-642.75,23-1285.51,120.68-1905.51,291.86c-306.07,84.51-607.11,187.29-900.81,308.01c-281.15,115.55-573.63,257.22-685.85,561.88 c-43.05,116.88-45.04,264.27,0.61,380.85c50.89,129.93,134.78,226.66,248.4,306.68c189.47,133.44,446.06,180.64,673.4,182.78 c130.64,1.23,259.92-20.31,387.8-45.13c141.36-27.45,281.47-61.34,419.81-101.33c290.02-83.83,572.89-195.06,844.08-327.56 c258.78-126.44,506.52-275.55,739.14-445.38c243.56-177.83,476.61-372.81,679.84-596.18c22.21-24.42,44.12-49.24,65.79-74.34 c136.64,4.88,273.16,13.11,409.36,25.11c65.07,5.73,130.08,12.23,194.94,20.08c11.69,1.42,23.37,2.94,35.05,4.39 c1.01,0.14,2.02,0.28,3.03,0.42c30.24,4.28,60.43,8.85,90.58,13.74c121.03,19.62,241.32,44.26,359.92,75.43 c115.39,30.34,229.26,66.81,340.03,111.22c3.63,1.45,7.25,2.93,10.88,4.39c8.35,3.66,16.76,7.21,25.07,10.93 c29.13,13.05,57.99,26.72,86.53,41.02c52.8,26.44,104.51,55.07,154.76,86.09c44.89,27.7,87.71,57.98,130.47,88.79 c1.22,0.96,2.44,1.93,3.64,2.9c9.7,7.84,19.3,15.78,28.81,23.85c22.18,18.8,43.86,38.21,64.94,58.24c1.49,1.42,2.88,2.95,4.36,4.38 c-55.89,11.6-112.22,21.1-168.63,29.7c-187.04,28.52-374.19,52.84-558.42,97.08c-112.49,27.01-190.28,160.89-154.37,271.88 c37.88,117.04,151.34,183.31,271.88,154.37c188.58-45.29,380.21-69.48,571.59-99.1c164.16-25.42,319.93-64.35,471.83-128.68 c18.38-5.01,36.36-12.56,53.38-23.53c53.55-24.99,86.28-76.68,99.97-133.19C9619.78,7998.32,9621.63,7964.9,9615.72,7931.75z M4740.44,1768.91c0.17,0.14,0.34,0.28,0.51,0.43C4731.02,1761.25,4720.79,1752.2,4740.44,1768.91z M4940.44,2029.78 c0.13,0.33,0.24,0.66,0.36,1C4936.74,2020.56,4933.93,2012.83,4940.44,2029.78z M1675.22,5481.87c1.28-1.4,2.26,10.09,2.97,20.79 C1675.45,5493.34,1673.28,5483.99,1675.22,5481.87z M4393.01,4228.2c-16.05,22.33-32.33,44.5-48.85,66.48 c-5.18,6.9-10.42,13.75-15.67,20.61c-5.27,6.67-10.5,13.37-15.8,20.02c-72.53,91.09-149.19,178.89-229.63,263.08 c-80.46,84.21-164.7,164.81-252.39,241.47c-44.63,39.01-90.16,77-136.53,113.94c-4.66,3.71-20.15,15.79-25.93,20.34 c-4.36,3.32-8.14,6.21-9.63,7.33c-23.65,17.84-47.51,35.4-71.56,52.68c-190.5,136.81-393.55,256.22-606.29,355.02 c-24.88,11.56-49.89,22.84-75.03,33.83c-1.89,0.83-5.96,2.58-10.59,4.58c-7.2,2.96-24.87,10.33-29.98,12.4 c-54.78,22.12-110.11,42.87-165.94,62.22c-111.73,38.72-225.42,71.79-340.55,98.78c-55.62,13.05-111.57,24.67-167.78,34.85 c-27.39,4.96-54.85,9.65-82.37,13.85c-2.15,0.33-4.45,0.58-6.7,0.85c-17.03,1.62-34.02,3.71-51.09,5.08 c-30.02,2.4-60.12,3.82-90.24,3.88c-16.1,0.03-32.19-0.35-48.27-1.17c-6.35-0.33-30.2-2.85-40.07-3.61 c-3.79-0.66-7.08-1.25-8.84-1.61c-15.23-3.09-30.35-6.71-45.28-11.03c-2.49-0.72-5.03-1.64-7.58-2.56 c0.2,1.55-5.22,1.29-13.52-2.92c-3.63-1.85-7.24-3.73-10.88-5.56c-1.88-0.49-3.76-1.07-5.62-1.38c1.62,0.27,3.06,0.55,4.53,0.82 c-3.81-1.92-7.66-3.77-11.41-5.83c-9.43-5.17-18.35-11.08-27.32-16.91c-5.12-4.38-11.56-9.2-12.51-10.09 c-8.36-7.87-16.41-16.12-24.08-24.67c-0.01-0.02-0.03-0.03-0.04-0.05c-6.02-10.33-12.7-20.17-18.32-30.77 c-0.01-0.02-0.02-0.04-0.03-0.06c-2.48-6.95-5.72-15.84-6.8-19.66c-0.82-2.89-3.41-10.39-5.75-18.16 c-0.21-1.74-0.45-3.47-0.57-5.16c-0.89-12.34-1.21-24.72-1.11-37.09c0.1-11.39,1.02-22.67,1.55-34.02 c4.79-23.93,10.08-47.56,17.16-70.98c3.37-11.14,7.01-22.18,10.89-33.15c0.89-2.51,3.55-9.4,6.31-16.52 c3.55-7.79,8.91-19.79,11.07-24.17c5.42-10.97,11.05-21.84,16.88-32.61c14.81-27.36,30.91-54.01,48.05-79.96 c8.1-12.26,16.43-24.37,24.99-36.32c1.52-2.12,3.06-4.22,4.62-6.32c16.07-19.16,31.62-38.73,48.47-57.29 c39.21-43.18,81.49-83.65,126.58-120.67c0.57-0.47,1.16-0.92,1.74-1.39c11.19-7.81,22.17-15.95,33.42-23.68 c29.28-20.13,58.97-39.7,88.98-58.73c117.41-74.46,240.03-140.55,366.06-199.21c31.78-14.8,63.94-28.71,95.96-42.97 c1.35-0.57,2.71-1.12,4.06-1.68c18.73-7.71,37.51-15.28,56.35-22.71c66.08-26.04,132.83-50.33,200.12-73.09 c268.76-90.88,545.27-157.09,823.53-211.39c139.08-27.14,278.72-51.3,418.6-73.94c77.49-12.54,155.08-24.54,232.79-35.7 c16.69-2.39,33.38-4.75,50.07-7.07c2.58-0.35,8.28-1.14,13.61-1.87c1.2-0.16,2.2-0.28,2.86-0.37c12.32-1.58,24.66-3.02,36.98-4.58 C4410.12,4203.77,4401.71,4216.09,4393.01,4228.2z M3795.25,7886.96c19.25-8.48,5.73-2.33-5.59,2.45 C3791.53,7888.6,3793.39,7887.78,3795.25,7886.96z M3432.23,8233.29C3429.11,8226.9,3425.98,8218.94,3432.23,8233.29 L3432.23,8233.29z M3790.89,8427.87c-2.3-0.6,10.02,1.31,21.09,3.01C3804.72,8430.34,3797.47,8429.59,3790.89,8427.87z M6393.52,7353.59c-50.51,44.07-101.97,87.08-154.29,128.98c-13.56,10.87-27.24,21.58-40.86,32.38c-0.85,0.67-1.38,1.09-2.1,1.67 c-0.12,0.09-0.18,0.14-0.3,0.22c-29.67,22.52-59.46,44.86-89.57,66.78c-222.84,162.17-459.48,305.39-706.38,427.84 c-60.06,29.79-120.73,58.36-181.96,85.69c-15.87,7.09-31.78,14.09-47.73,21.01c-4.76,2.06-9.52,4.1-14.28,6.15 c-30.36,12.49-60.71,24.98-91.27,36.99c-127.1,49.94-256.28,94.59-387.11,133.72c-133.2,39.85-268.11,74-404.25,102.21 c-31.61,6.55-63.28,12.78-95.02,18.68c-17.09,3.18-34.19,6.28-51.31,9.27c-3.05,0.53-8.25,1.96-14.12,3.52 c3.14-0.28,3.65-0.28-0.52,0.14c-12.78,3.39-28.81,7.37-34.96,4.58c-0.73-0.33,1.47-0.82,5.01-1.36 c-8.11,0.81-16.22,1.67-24.34,2.31c-25.04,1.99-50.14,3.22-75.26,3.71c-51.27,1.02-102.59-0.98-153.62-5.93 c-3.62-0.35-7.4-0.61-11.23-0.86c-3.98-0.62-7.98-1.21-11.94-1.86c-26.9-4.38-53.65-9.66-80.18-15.89 c-44.54-10.46-87.5-24.53-130.45-39.96c-8.92-4.27-17.89-8.42-26.69-12.95c-20.12-10.39-39.78-21.71-58.72-34.14 c-4.24-2.79-8.37-5.74-12.49-8.69c-14.1-12.96-27.06-26.54-40.32-40.18c-3.18-4.76-6.34-9.52-9.24-14.47 c-2.85-4.87-5.41-9.88-7.96-14.9c-2.28-8.31-4.9-16.51-6.87-24.92c0-0.01,0-0.02-0.01-0.03c-0.44-5.33-0.85-10.78-0.91-13.67 c-0.16-9.66,0.33-19.26,0.77-28.89c2.4-10.26,4.72-20.5,7.8-30.61c0.44-1.46,1.45-3.89,2.56-6.57c5.77-10.59,10.61-21.97,16.9-32.2 c4.17-6.78,8.83-13.25,13.46-19.74c2-2.37,4.05-4.71,6.11-6.98c20.04-22.08,42.28-40.95,64.32-60.8 c11.45-8.21,23.06-16.2,34.86-23.88c25.22-16.41,51.18-31.68,77.6-46.09c26.44-14.42,53.39-27.93,80.62-40.77 c11.55-5.45,23.17-10.77,34.83-15.99c4.64-2.07,9.29-4.09,13.93-6.13c69.43-25.03,137.14-56.33,206.06-82.82 c559.89-215.23,1144.24-366.31,1738.05-450.85c7.55-1.07,15.11-2.12,22.67-3.18c15.92-1.83,31.83-4.25,47.7-6.24 c37.7-4.74,75.44-9.22,113.2-13.43c75.53-8.42,151.17-15.77,226.91-22.03c106.95-8.85,214.08-15.47,321.31-20.01 C6439.32,7313.05,6416.57,7333.49,6393.52,7353.59z" style="fill: inherit;"/><path d="M1784.92,5630.44c0.37,0.19,0.73,0.38,1.09,0.56c8.11,2.13,16.34,5.53,24.4,8.48 C1810.19,5637.75,1802.97,5633.81,1784.92,5630.44z" style="fill: inherit;"/><path d="M4094.98,8430.89c5.19-0.58,10.38-1.35,15.58-1.85c0.8-0.08,1.28-0.13,1.88-0.19c0.18-0.04,0.35-0.1,0.52-0.14 c-6.23,0.54-22.19,2.1-30.47,3.36C4086.65,8431.66,4090.83,8431.35,4094.98,8430.89z" style="fill: inherit;"/></g></svg>