<svg xmlns="http://www.w3.org/2000/svg" xmlns:xlink="http://www.w3.org/1999/xlink" preserveAspectRatio="xMidYMid meet" version="1.0" viewBox="0.0 -5.6 500.2 208.5" zoomAndPan="magnify" style="fill: rgb(0, 0, 0);" original_string_length="2477" width="147.25956671014166px" height="61.313528684768066px"><g id="__id5_sxfxokhuva"><path d="M111,47.7c-15,0-30-5.7-41.4-17.1C62,23,52,18.9,41.4,18.9S20.9,23,13.4,30.5L0,17.2C11.1,6.1,25.8,0,41.4,0 s30.4,6.1,41.4,17.2c15.5,15.5,40.7,15.5,56.2,0c22.8-22.8,60-22.8,82.9,0c15.5,15.5,40.7,15.5,56.2,0C289.2,6.1,303.9,0,319.5,0 s30.4,6.1,41.4,17.2c15.5,15.5,40.7,15.5,56.2,0c22.8-22.8,60-22.8,82.9,0l-13.4,13.4c-7.5-7.5-17.5-11.6-28.1-11.6 c-10.6,0-20.6,4.1-28.1,11.6c-22.8,22.8-60,22.8-82.9,0c-7.5-7.5-17.5-11.6-28.1-11.6c-10.6,0-20.6,4.1-28.1,11.6 c-22.9,22.8-60,22.8-82.9,0c-15.5-15.5-40.7-15.5-56.2,0C141,41.9,126,47.7,111,47.7z M430.5,80.4c15.5-15.5,40.7-15.5,56.2,0 L500,67c-22.9-22.8-60-22.8-82.9,0c-15.5,15.5-40.7,15.5-56.2,0c-22.9-22.8-60-22.8-82.9,0c-7.5,7.5-17.5,11.6-28.1,11.6 s-20.6-4.1-28.1-11.6c-22.9-22.8-60-22.8-82.9,0c-7.5,7.5-17.5,11.6-28.1,11.6S90.4,74.5,82.9,67C60,44.2,22.8,44.2,0,67l13.4,13.4 c15.5-15.5,40.7-15.5,56.2,0C80.6,91.5,95.3,97.5,111,97.5s30.4-6.1,41.4-17.2c15.5-15.5,40.7-15.5,56.2,0 c11.1,11.1,25.8,17.2,41.4,17.2s30.4-6.1,41.4-17.2c15.5-15.5,40.7-15.5,56.2,0c11.1,11.1,25.8,17.2,41.4,17.2 C404.7,97.5,419.4,91.5,430.5,80.4z M152.4,130.2c15.5-15.5,40.7-15.5,56.2,0c22.8,22.8,60,22.9,82.9,0c7.5-7.5,17.5-11.6,28.1-11.6 c10.6,0,20.6,4.1,28.1,11.6c22.9,22.8,60,22.8,82.9,0c15.5-15.5,40.7-15.5,56.2,0l13.4-13.4c-22.9-22.8-60-22.8-82.9,0 c-15.5,15.5-40.7,15.5-56.2,0c-11.1-11.1-25.8-17.2-41.4-17.2s-30.4,6.1-41.4,17.2c-7.5,7.5-17.5,11.6-28.1,11.6 s-20.6-4.1-28.1-11.6c-22.8-22.8-60-22.8-82.9,0c-7.5,7.5-17.5,11.6-28.1,11.6s-20.6-4.1-28.1-11.6C60,94,22.8,94,0,116.9l13.4,13.4 c7.5-7.5,17.5-11.6,28.1-11.6s20.6,4.1,28.1,11.6c11.1,11.1,25.8,17.2,41.4,17.2S141.3,141.3,152.4,130.2z M152.4,180.1 c15.5-15.5,40.7-15.5,56.2,0c22.8,22.8,60,22.8,82.9,0c7.5-7.5,17.5-11.6,28.1-11.6c10.6,0,20.6,4.1,28.1,11.6 c22.9,22.8,60,22.8,82.9,0c7.5-7.5,17.5-11.6,28.1-11.6c10.6,0,20.6,4.1,28.1,11.6l13.4-13.4c-22.8-22.8-60-22.9-82.9,0 c-15.5,15.5-40.7,15.5-56.2,0c-11.1-11.1-25.8-17.2-41.4-17.2s-30.4,6.1-41.4,17.2c-15.5,15.5-40.7,15.5-56.2,0 c-22.9-22.8-60-22.8-82.9,0c-15.5,15.5-40.7,15.5-56.2,0c-11.1-11.1-25.8-17.2-41.4-17.2S11.1,155.7,0,166.7l13.4,13.4 c7.5-7.5,17.5-11.6,28.1-11.6s20.6,4.1,28.1,11.6c11.4,11.4,26.4,17.1,41.4,17.1S141,191.5,152.4,180.1z" style="fill: rgb(255, 116, 15);"/></g></svg>