<svg xmlns="http://www.w3.org/2000/svg" xmlns:xlink="http://www.w3.org/1999/xlink" preserveAspectRatio="xMidYMid meet" version="1.0" viewBox="-0.7 -0.5 1407.5 303.8" zoomAndPan="magnify" style="fill: rgb(255, 116, 15);" original_string_length="2060" width="82.2998428865238px" height="17.797341024210773px"><g id="__id0_sxfxokhuva"><path d="M985.9,124.2c1.2,0.2,2.4,0.3,3.7,0.4c66.4,0.1,132.9-0.1,199.3,0.2c66.2,0.3,132.4,1.1,198.5,2c4.3,0,8.6,1.2,12.3,3.3 c5.5,3.5,7.1,9.4,4.8,15.6c-2.4,6.6-7.7,9.9-14.5,9.2c-67.8-7.7-135.8-1-203.7-1.8c-44.4-0.5-88.8-1.4-133.1-1.5 c-68.6-0.1-136.8,5.2-205,11.6c-49.3,4.6-98.7,7.5-147.9,13c-24.8,2.8-49.3,9.1-73.8,14.8c-114.1,26.4-228,53.9-342.4,79.4 c-51.5,11.5-103.8,19.5-155.9,28c-23.3,3.8-47.1,4.9-70.4-0.5c-7.4-1.8-14.4-5.2-20.3-10c-9.7-8-9-19.9,0.7-27.8 c4.6-3.6,9.6-6.8,14.9-9.5c46.4-25.5,96.6-39.8,148.4-48.8c101.3-17.6,203-33.3,305.5-42.4c49.5-4.4,99.3-6.7,149.1-7.8 c40.4-0.9,79.3-9.8,118.7-16.5c95-16.2,190.1-32.5,285.3-47.1c88.5-13.6,176.5-29.7,263.4-51.2c7.1-1.8,13.9-4.4,21.5-6.8 c-2.8-7.3-8-9-13.3-9c-16.6,0.2-33.4,0.2-49.9,1.9c-39,4-77.9,8.5-116.8,13.6c-27.9,3.7-55.6,9-83.5,12.9 c-62.7,8.8-125.4,17-188.1,25.7c-39.9,5.5-79.6,11.9-119.5,17.1c-34,4.5-68.1,8.3-102.3,11.6c-41.6,3.9-83.3,7.2-125,10 c-50.4,3.3-100.8,6.6-151.3,8.4c-51.8,1.9-103.4,5.6-154.9,11.9c-47.3,5.8-94.8,10.4-142.1,16.2c-19.8,2.4-39.4,6.6-59.2,9.5 c-8.9,1.1-17.8,1.6-26.8,1.3c-5,0-11.4-0.5-12.2-6.8s5.2-8.5,10.1-9.7c19.7-4.7,39.3-10.5,59.2-13.3c65.3-8.9,130.6-18.3,196.1-24.4 c61.2-5.8,122.8-7.4,184.3-11.3c75-4.7,150.1-8.4,224.9-15.3c72.7-6.7,145.2-16.3,217.7-25.6c73.5-9.4,146.8-20.1,220.2-30 c61-8.2,122-16.2,183-23.6c12.8-1.6,26.1-0.5,39.1,0.4c5.4,0.4,11,2.8,15.7,5.6c18.7,11.4,18.9,33.2-0.7,42.6 c-14.8,7.1-31.2,11.5-47.2,15.7c-87.2,22.4-175.9,37.1-265,49.7c-17.2,2.4-34.3,5.3-51.5,8L985.9,124.2z M64,271.2l0.7,3.1 c9.7,0,19.5,0.9,29-0.2c35.1-4.1,70.4-7.5,105.1-13.7c114.4-20.2,227.5-46.3,340.3-73.9c5.7-1.4,11.4-2.8,17.2-4.3l-0.4-2 c-31.1,2.8-62.3,4.5-93.2,8.7c-82.7,11.1-165.4,22.8-247.9,35.1c-49.6,7.5-97.7,20.8-142.9,43.1C69.1,268.5,66.6,269.9,64,271.2 L64,271.2z" style="fill: inherit;"/></g></svg>